<svg id="svg-visual-composer" viewBox="0 0 24 24" xmlns="http://www.w3.org/2000/svg"><g fill="none" stroke="#000" stroke-linecap="round" stroke-linejoin="round"><path d="m11 18.5h-9.5a1 1 0 0 1 -1-1v-16a1 1 0 0 1 1-1h15a1 1 0 0 1 1 1v9.965" style="stroke-dasharray: 56, 58; stroke-dashoffset: 0;"></path><path height="5" width="13" d="M 2.5,2.5 L 15.5,2.5 A 0,0,0,0,1,15.5,2.5 L 15.5,7.5 A 0,0,0,0,1,15.5,7.5 L 2.5,7.5 A 0,0,0,0,1,2.5,7.5 L 2.5,2.5 A 0,0,0,0,1,2.5,2.5" style="stroke-dasharray: 36, 38; stroke-dashoffset: 0;"></path><path d="m2.5 10v6a.5.5 0 0 0 .5.5h6.337a.5.5 0 0 0 .481-.637l-1.714-6a.5.5 0 0 0 -.481-.363h-4.623a.5.5 0 0 0 -.5.5z" style="stroke-dasharray: 27, 29; stroke-dashoffset: 0;"></path><path d="m15.5 13.5v-3.5a.5.5 0 0 0 -.5-.5h-3.837a.5.5 0 0 0 -.481.637l1.818 6.363h.458" style="stroke-dasharray: 17, 19; stroke-dashoffset: 0;"></path><path d="m15.7 22.3-4.2 1.2 1.2-4.2 7.179-7.179a2.121 2.121 0 0 1 3 3z" style="stroke-dasharray: 36, 38; stroke-dashoffset: 0;"></path><path d="m18.979 13.021 3 3" style="stroke-dasharray: 5, 7; stroke-dashoffset: 0;"></path><path d="m12.7 19.3 3 3" style="stroke-dasharray: 5, 7; stroke-dashoffset: 0;"></path></g></svg>