<svg id="svg-one-click-install" viewBox="0 0 24 24" xmlns="http://www.w3.org/2000/svg"><g fill="none" stroke="#000" stroke-linecap="round" stroke-linejoin="round"><path d="m22.5 23.5v-2.667a3.334 3.334 0 0 0 -3.333-3.333h-1.667v-4.5a1.5 1.5 0 0 0 -3 0v7l-1.289-1.08a1.25 1.25 0 1 0 -1.922 1.6l2.479 2.98" style="stroke-dasharray: 36, 38; stroke-dashoffset: 0;"></path><path d="m9.5 23.5h-7a2 2 0 0 1 -2-2v-19a2 2 0 0 1 2-2h19a2 2 0 0 1 2 2v13" style="stroke-dasharray: 68, 70; stroke-dashoffset: 0;"></path><path d="m.5 5.499h23" style="stroke-dasharray: 23, 25; stroke-dashoffset: 0;"></path><path height="8" width="7" d="M 3.5,8.499 L 10.5,8.499 A 0,0,0,0,1,10.5,8.499 L 10.5,16.499000000000002 A 0,0,0,0,1,10.5,16.499000000000002 L 3.5,16.499000000000002 A 0,0,0,0,1,3.5,16.499000000000002 L 3.5,8.499 A 0,0,0,0,1,3.5,8.499" style="stroke-dasharray: 30, 32; stroke-dashoffset: 0;"></path><path d="M5.5,11.999A1.5,1.5 0,1,1 8.5,11.999A1.5,1.5 0,1,1 5.5,11.999" style="stroke-dasharray: 10, 12; stroke-dashoffset: 0;"></path><path d="m9.5 16.5h-5a2.784 2.784 0 0 1 2.5-3 2.784 2.784 0 0 1 2.5 3z" style="stroke-dasharray: 14, 16; stroke-dashoffset: 0;"></path><path d="m4 18.499h4" style="stroke-dasharray: 4, 6; stroke-dashoffset: 0;"></path><path d="m4 20.499h4" style="stroke-dasharray: 4, 6; stroke-dashoffset: 0;"></path><path d="m4 2.749a.25.25 0 1 1 -.25.251.25.25 0 0 1 .25-.251" style="stroke-dasharray: 2, 4; stroke-dashoffset: 0;"></path><path d="m7 2.749a.25.25 0 1 1 -.25.251.25.25 0 0 1 .25-.251" style="stroke-dasharray: 2, 4; stroke-dashoffset: 0;"></path><path d="m10 2.749a.25.25 0 1 1 -.25.251.25.25 0 0 1 .25-.25" style="stroke-dasharray: 2, 4; stroke-dashoffset: 0;"></path><path d="m14 8.499h6.5" style="stroke-dasharray: 7, 9; stroke-dashoffset: 0;"></path></g></svg>