<svg id="svg-multilingual" viewBox="0 0 24 24" xmlns="http://www.w3.org/2000/svg"><g fill="none" stroke="#000" stroke-linecap="round" stroke-linejoin="round"><path d="m7.5 11.5h-2l-3 3v-3h-1a1 1 0 0 1 -1-1v-9a1 1 0 0 1 1-1h12a1 1 0 0 1 1 1v9" style="stroke-dasharray: 45, 47; stroke-dashoffset: 0;"></path><path d="m16.5 10.5h6a1 1 0 0 1 1 1v8a1 1 0 0 1 -1 1h-1v3l-3-3h-8a1 1 0 0 1 -1-1v-8a1 1 0 0 1 1-1h1" style="stroke-dasharray: 46, 48; stroke-dashoffset: 0;"></path><path d="m5.5 8.5v-4.5a1.5 1.5 0 0 1 3 0v4.5" style="stroke-dasharray: 14, 16; stroke-dashoffset: 0;"></path><path d="m5.5 5.5h3" style="stroke-dasharray: 3, 5; stroke-dashoffset: 0;"></path><path d="m17.5 13.5v-1" style="stroke-dasharray: 1, 3; stroke-dashoffset: 0;"></path><path d="m14.5 13.5h6" style="stroke-dasharray: 6, 8; stroke-dashoffset: 0;"></path><path d="m16 13.5a4.868 4.868 0 0 0 4 4.5" style="stroke-dasharray: 7, 9; stroke-dashoffset: 0;"></path><path d="m19 13.5a4.868 4.868 0 0 1 -4 4.5" style="stroke-dasharray: 7, 9; stroke-dashoffset: 0;"></path></g></svg>