<svg id="svg-shopping" viewBox="0 0 24 24" xmlns="http://www.w3.org/2000/svg"><g fill="none" stroke="#000" stroke-linecap="round" stroke-linejoin="round"><path height="22" width="23" d="M 2.5,1 L 21.5,1 A 2,2,0,0,1,23.5,3 L 23.5,21 A 2,2,0,0,1,21.5,23 L 2.5,23 A 2,2,0,0,1,0.5,21 L 0.5,3 A 2,2,0,0,1,2.5,1" style="stroke-dasharray: 87, 89; stroke-dashoffset: 0;"></path><path d="m.5 6h23" style="stroke-dasharray: 23, 25; stroke-dashoffset: 0;"></path><path d="m4 3.25a.25.25 0 1 1 -.25.25.25.25 0 0 1 .25-.25" style="stroke-dasharray: 2, 4; stroke-dashoffset: 0;"></path><path d="m7 3.25a.25.25 0 1 1 -.25.25.25.25 0 0 1 .25-.25" style="stroke-dasharray: 2, 4; stroke-dashoffset: 0;"></path><path d="m10 3.25a.25.25 0 1 1 -.25.25.25.25 0 0 1 .25-.25" style="stroke-dasharray: 2, 4; stroke-dashoffset: 0;"></path><path d="m17.5 13-.811-3.243a1 1 0 0 0 -.97-.757h-2.219a1.5 1.5 0 0 1 -3 0h-2.219a1 1 0 0 0 -.97.757l-.811 3.243h2v4h7v-4z" style="stroke-dasharray: 38, 40; stroke-dashoffset: 0;"></path><path d="m19 18 1.5 1.5-1.5 1.5" style="stroke-dasharray: 5, 7; stroke-dashoffset: 0;"></path><path d="m20.5 19.5h-4" style="stroke-dasharray: 4, 6; stroke-dashoffset: 0;"></path><path d="m5 18-1.5 1.5 1.5 1.5" style="stroke-dasharray: 5, 7; stroke-dashoffset: 0;"></path><path d="m3.5 19.5h4" style="stroke-dasharray: 4, 6; stroke-dashoffset: 0;"></path></g></svg>