<svg id="svg-coming-soon" viewBox="0 0 24 24" xmlns="http://www.w3.org/2000/svg"><g fill="none" stroke="#000" stroke-linecap="round" stroke-linejoin="round"><path d="m3.906 19.5h-1.406a2 2 0 0 1 -2-2v-15a2 2 0 0 1 2-2h19a2 2 0 0 1 2 2v15a2 2 0 0 1 -2 2h-1.512" style="stroke-dasharray: 65, 67; stroke-dashoffset: 0;"></path><path d="m.5 5.5h23" style="stroke-dasharray: 23, 25; stroke-dashoffset: 0;"></path><path d="m4 2.75a.25.25 0 1 1 -.25.25.25.25 0 0 1 .25-.25" style="stroke-dasharray: 2, 4; stroke-dashoffset: 0;"></path><path d="m7 2.75a.25.25 0 1 1 -.25.25.25.25 0 0 1 .25-.25" style="stroke-dasharray: 2, 4; stroke-dashoffset: 0;"></path><path d="m10 2.75a.25.25 0 1 1 -.25.25.25.25 0 0 1 .25-.25" style="stroke-dasharray: 2, 4; stroke-dashoffset: 0;"></path><path d="M6,17.5A6,6 0,1,1 18,17.5A6,6 0,1,1 6,17.5" style="stroke-dasharray: 38, 40; stroke-dashoffset: 0;"></path><path d="m12 11.5v-3" style="stroke-dasharray: 3, 5; stroke-dashoffset: 0;"></path><path d="m10.5 8.5h3" style="stroke-dasharray: 3, 5; stroke-dashoffset: 0;"></path><path d="m7 11.5 1.287 1.287" style="stroke-dasharray: 2, 4; stroke-dashoffset: 0;"></path><path d="m17 11.5-1.287 1.287" style="stroke-dasharray: 2, 4; stroke-dashoffset: 0;"></path><path d="m12.53 16.97 1.591-1.591" style="stroke-dasharray: 3, 5; stroke-dashoffset: 0;"></path><path d="m11.823 17.323a.25.25 0 1 1 0 .354.252.252 0 0 1 0-.354" style="stroke-dasharray: 2, 4; stroke-dashoffset: 0;"></path></g></svg>