<svg id="svg-customizable" viewBox="0 0 24 24" xmlns="http://www.w3.org/2000/svg"><g fill="none" stroke="#000" stroke-linecap="round" stroke-linejoin="round"><path d="m13 13.5a2 2 0 0 0 -2 2v6a2 2 0 0 0 4 0v-6a2 2 0 0 0 -2-2z" style="stroke-dasharray: 25, 27; stroke-dashoffset: 0;"></path><path d="m5 3.5h-1a1 1 0 0 0 -1 1v4a1 1 0 0 0 1 1h8a1 1 0 0 1 1 1v2.938" style="stroke-dasharray: 21, 23; stroke-dashoffset: 0;"></path><path height="6" width="15" d="M 6,0.5 L 19,0.5 A 1,1,0,0,1,20,1.5 L 20,5.5 A 1,1,0,0,1,19,6.5 L 6,6.5 A 1,1,0,0,1,5,5.5 L 5,1.5 A 1,1,0,0,1,6,0.5" style="stroke-dasharray: 41, 43; stroke-dashoffset: 0;"></path><path d="m20 3.5h1" style="stroke-dasharray: 1, 3; stroke-dashoffset: 0;"></path></g></svg>