<svg id="svg-seo-optimized" viewBox="0 0 24 24" xmlns="http://www.w3.org/2000/svg"><g fill="none" stroke="#000" stroke-linecap="round" stroke-linejoin="round"><path d="m.5 2.5v17h9.322" style="stroke-dasharray: 27, 29; stroke-dashoffset: 0;"></path><path d="m6.5 19.5h-3v-13.5a.5.5 0 0 1 .5-.5h2a.5.5 0 0 1 .5.5z" style="stroke-dasharray: 34, 36; stroke-dashoffset: 0;"></path><path d="m8.5 19.5v-8.5a.5.5 0 0 1 .5-.5h2a.5.5 0 0 1 .5.5v2" style="stroke-dasharray: 15, 17; stroke-dashoffset: 0;"></path><path d="m15.983 16 1.517-1v4" style="stroke-dasharray: 6, 8; stroke-dashoffset: 0;"></path><path d="m2 2 1 1" style="stroke-dasharray: 2, 4; stroke-dashoffset: 0;"></path><path d="m5 .5v1.5" style="stroke-dasharray: 2, 4; stroke-dashoffset: 0;"></path><path d="m8 2-1 1" style="stroke-dasharray: 2, 4; stroke-dashoffset: 0;"></path><path d="M12.5,17.029A4.529,4.529 0,1,1 21.558,17.029A4.529,4.529 0,1,1 12.5,17.029" style="stroke-dasharray: 29, 31; stroke-dashoffset: 0;"></path><path d="m23.5 23.5-3.248-3.248" style="stroke-dasharray: 5, 7; stroke-dashoffset: 0;"></path><path d="m16.5 19h2" style="stroke-dasharray: 2, 4; stroke-dashoffset: 0;"></path></g></svg>