<svg id="svg-portfolio-items" viewBox="0 0 24 24" xmlns="http://www.w3.org/2000/svg"><g fill="none" stroke="#000" stroke-linecap="round" stroke-linejoin="round"><path d="m23.5 1.5a1 1 0 0 0 -1-1h-18a1 1 0 0 0 -1 1v18a1 1 0 0 0 1 1h18a1 1 0 0 0 1-1z" style="stroke-dasharray: 79, 81; stroke-dashoffset: 0;"></path><path d="m21 16.5-2.657-7.089a.5.5 0 0 0 -.884-.1l-3.459 5.189-2.049-2.459a.5.5 0 0 0 -.813.063l-2.638 4.396" style="stroke-dasharray: 25, 27; stroke-dashoffset: 0;"></path><path d="M8.5,5.997A1.5,1.5 0,1,1 11.5,5.997A1.5,1.5 0,1,1 8.5,5.997" style="stroke-dasharray: 10, 12; stroke-dashoffset: 0;"></path><path d="m23.5 16.497h-20" style="stroke-dasharray: 20, 22; stroke-dashoffset: 0;"></path><path d="m3.5 4.5h-2a1 1 0 0 0 -1 1v17a1 1 0 0 0 1 1h17a1 1 0 0 0 1-1v-2" style="stroke-dasharray: 43, 45; stroke-dashoffset: 0;"></path></g></svg>