<svg id="svg-responsive-and-retina" viewBox="0 0 24 24" xmlns="http://www.w3.org/2000/svg"><g fill="none" stroke="#000" stroke-linecap="round" stroke-linejoin="round"><path d="m5.579 4a1.469 1.469 0 0 1 1.421-1h15a1.546 1.546 0 0 1 1.5 1.588v11.824a1.546 1.546 0 0 1 -1.5 1.588h-13.5" style="stroke-dasharray: 48, 50; stroke-dashoffset: 0;"></path><path d="m10 20h9" style="stroke-dasharray: 9, 11; stroke-dashoffset: 0;"></path><path d="m14.5 18v2" style="stroke-dasharray: 2, 4; stroke-dashoffset: 0;"></path><path d="m13.5 14h10" style="stroke-dasharray: 10, 12; stroke-dashoffset: 0;"></path><path d="m3.5 9v-2a1 1 0 0 1 1-1h6a1 1 0 0 1 1 1v8a1 1 0 0 1 -1 1h-2" style="stroke-dasharray: 23, 25; stroke-dashoffset: 0;"></path><path d="m8.5 14h3" style="stroke-dasharray: 3, 5; stroke-dashoffset: 0;"></path><path height="9" width="6" d="M 1.5,11 L 5.5,11 A 1,1,0,0,1,6.5,12 L 6.5,19 A 1,1,0,0,1,5.5,20 L 1.5,20 A 1,1,0,0,1,0.5,19 L 0.5,12 A 1,1,0,0,1,1.5,11" style="stroke-dasharray: 29, 31; stroke-dashoffset: 0;"></path><path d="m.5 18h6" style="stroke-dasharray: 6, 8; stroke-dashoffset: 0;"></path><path d="m.5 13h6" style="stroke-dasharray: 6, 8; stroke-dashoffset: 0;"></path><path d="m3.499 8.001h8" style="stroke-dasharray: 8, 10; stroke-dashoffset: 0;"></path></g></svg>