<svg id="svg-high-speed-performace" viewBox="0 0 24 17" xmlns="http://www.w3.org/2000/svg"><g fill="none" fill-rule="evenodd" stroke="#000" stroke-linecap="round" stroke-linejoin="round"><path d="M10.5,12A1.5,1.5 0,1,1 13.5,12A1.5,1.5 0,1,1 10.5,12" style="stroke-dasharray: 10, 12; stroke-dashoffset: 0;"></path><path d="m13.5 12.5h7" style="stroke-dasharray: 7, 9; stroke-dashoffset: 0;"></path><path d="m2.5 12.5h2" style="stroke-dasharray: 2, 4; stroke-dashoffset: 0;"></path><path d="m18.75 5.25-1.5 1.5" style="stroke-dasharray: 3, 5; stroke-dashoffset: 0;"></path><path d="m20.776 8.365-1.847.765" style="stroke-dasharray: 2, 4; stroke-dashoffset: 0;"></path><path d="m15.635 3.223-.765 1.848" style="stroke-dasharray: 3, 5; stroke-dashoffset: 0;"></path><path d="m12 2.5v2" style="stroke-dasharray: 2, 4; stroke-dashoffset: 0;"></path><path d="m8.365 3.223.765 1.848" style="stroke-dasharray: 3, 5; stroke-dashoffset: 0;"></path><path d="m5.283 5.282 1.412 1.415" style="stroke-dasharray: 2, 4; stroke-dashoffset: 0;"></path><path d="m3.224 8.365 1.846.765" style="stroke-dasharray: 2, 4; stroke-dashoffset: 0;"></path><path d="m12 .5c-6.35127462 0-11.5 5.14872538-11.5 11.5v3.5c0 .5522847.44771525 1 1 1h21c.5522847 0 1-.4477153 1-1v-3.5c0-6.35127462-5.1487254-11.5-11.5-11.5z" style="stroke-dasharray: 68, 70; stroke-dashoffset: 0;"></path></g></svg>